<svg width="56" height="55" viewBox="0 0 56 55" fill="none" xmlns="http://www.w3.org/2000/svg">
<path d="M18.8998 44.2859C18.8998 44.5134 18.644 44.6953 18.3215 44.6953C17.9545 44.7295 17.6988 44.5475 17.6988 44.2859C17.6988 44.0585 17.9545 43.8765 18.277 43.8765C18.6107 43.8424 18.8998 44.0243 18.8998 44.2859ZM15.4413 43.7741C15.3634 44.0016 15.5858 44.2632 15.9194 44.3314C16.2086 44.4451 16.5422 44.3314 16.6089 44.1039C16.6757 43.8765 16.4644 43.6149 16.1307 43.5126C15.8416 43.4329 15.5191 43.5467 15.4413 43.7741ZM20.3566 43.5808C20.0341 43.6604 19.8117 43.8765 19.845 44.1381C19.8784 44.3655 20.1675 44.5134 20.5012 44.4338C20.8237 44.3542 21.0461 44.1381 21.0127 43.9106C20.9794 43.6945 20.6791 43.5467 20.3566 43.5808ZM27.674 2.71171e-09C12.2496 2.71171e-09 0.450562 11.9757 0.450562 27.7498C0.450562 40.3622 8.21281 51.1551 19.3001 54.9537C20.7236 55.2152 21.224 54.3168 21.224 53.5775C21.224 52.8724 21.1907 48.9829 21.1907 46.5946C21.1907 46.5946 13.4062 48.3005 11.7714 43.2055C11.7714 43.2055 10.5037 39.896 8.67987 39.043C8.67987 39.043 6.13324 37.2575 8.85781 37.2916C8.85781 37.2916 11.6269 37.5191 13.1504 40.2258C15.5858 44.6157 19.6671 43.3533 21.2574 42.6027C21.5132 40.7831 22.236 39.5207 23.0367 38.7701C16.8202 38.065 10.5482 37.1437 10.5482 26.2031C10.5482 23.0755 11.3933 21.5061 13.1726 19.5045C12.8835 18.7652 11.9382 15.7173 13.4618 11.7823C15.786 11.043 21.1351 14.853 21.1351 14.853C23.3592 14.2161 25.7501 13.8863 28.1188 13.8863C30.4876 13.8863 32.8785 14.2161 35.1026 14.853C35.1026 14.853 40.4517 11.0317 42.7759 11.7823C44.2995 15.7287 43.3542 18.7652 43.0651 19.5045C44.8444 21.5174 45.9342 23.0869 45.9342 26.2031C45.9342 37.1778 39.3841 38.0536 33.1676 38.7701C34.1907 39.6685 35.0582 41.3745 35.0582 44.0471C35.0582 47.8797 35.0248 52.6222 35.0248 53.5548C35.0248 54.294 35.5364 55.1925 36.9487 54.9309C48.0694 51.1551 55.6092 40.3622 55.6092 27.7498C55.6092 11.9757 43.0984 2.71171e-09 27.674 2.71171e-09ZM11.2599 39.225C11.1153 39.3387 11.1487 39.6003 11.3377 39.8164C11.5157 39.9983 11.7714 40.078 11.916 39.9301C12.0606 39.8164 12.0272 39.5548 11.8382 39.3387C11.6602 39.1568 11.4044 39.0771 11.2599 39.225ZM10.0588 38.3038C9.981 38.4516 10.0922 38.6336 10.3146 38.7473C10.4925 38.8611 10.715 38.8269 10.7928 38.6677C10.8707 38.5199 10.7594 38.3379 10.537 38.2242C10.3146 38.1559 10.1367 38.1901 10.0588 38.3038ZM13.6619 42.3525C13.484 42.5004 13.5507 42.8416 13.8065 43.0576C14.0623 43.3192 14.3848 43.3533 14.5294 43.1714C14.6739 43.0235 14.6072 42.6823 14.3848 42.4663C14.1401 42.2047 13.8065 42.1706 13.6619 42.3525ZM12.3942 40.6807C12.2163 40.7944 12.2163 41.0901 12.3942 41.3517C12.5721 41.6133 12.8724 41.727 13.0169 41.6133C13.1949 41.4654 13.1949 41.1698 13.0169 40.9082C12.8613 40.6466 12.5721 40.5329 12.3942 40.6807Z" fill="#E9E3E6"/>
</svg>
